<?xml version="1.0" standalone="no"?>
<!DOCTYPE svg PUBLIC "-//W3C//DTD SVG 20010904//EN"
 "http://www.w3.org/TR/2001/REC-SVG-20010904/DTD/svg10.dtd">
<svg version="1.0" xmlns="http://www.w3.org/2000/svg"
 width="512.000000pt" height="512.000000pt" viewBox="0 0 512.000000 512.000000"
 preserveAspectRatio="xMidYMid meet">
<metadata>
Created by potrace 1.11, written by Peter Selinger 2001-2013
</metadata>
<g transform="translate(0.000000,512.000000) scale(0.100000,-0.100000)"
fill="#000000" stroke="none">
<path d="M2525 5107 c-67 -24 -112 -65 -151 -137 -18 -33 -19 -73 -21 -890 -1
-470 -2 -888 -3 -928 l0 -73 -117 98 c-65 54 -129 107 -143 119 -14 12 -149
124 -300 250 -151 126 -277 231 -280 234 -17 20 -82 50 -126 58 -210 37 -367
-206 -247 -381 15 -21 103 -102 197 -180 94 -77 173 -143 176 -146 3 -3 25
-22 50 -42 25 -20 55 -45 66 -55 12 -11 41 -35 65 -55 219 -181 476 -395 486
-404 15 -15 12 -19 -82 -95 -44 -35 -82 -67 -85 -70 -3 -3 -86 -73 -185 -155
-222 -185 -194 -161 -355 -297 -75 -62 -158 -131 -185 -153 -158 -130 -187
-173 -187 -280 -1 -135 100 -235 239 -241 52 -2 71 2 112 24 50 27 68 41 206
157 245 206 352 295 395 330 21 17 95 78 165 138 70 59 130 106 132 103 2 -2
5 -420 6 -927 l2 -924 22 -40 c33 -62 91 -113 145 -130 96 -28 186 -6 269 67
28 25 71 61 133 111 58 47 477 395 506 420 45 39 193 161 280 232 113 92 158
137 208 212 143 212 142 477 -5 690 -48 71 -122 137 -463 419 -346 286 -415
343 -448 372 l-27 23 25 20 c14 11 34 28 45 37 11 9 74 62 140 117 106 88 210
174 270 223 11 10 47 40 80 67 33 28 68 57 80 67 233 189 290 249 345 363 86
179 86 367 0 537 -64 125 -82 143 -488 480 -180 149 -414 344 -520 432 -106
89 -213 172 -237 185 -51 27 -142 36 -190 18z m610 -1002 c400 -331 401 -332
391 -396 -4 -29 -50 -99 -64 -99 -4 0 -20 -13 -37 -28 -16 -15 -52 -45 -80
-67 -27 -22 -61 -50 -75 -61 -48 -41 -177 -149 -221 -185 -24 -20 -77 -64
-117 -98 -41 -33 -76 -61 -78 -61 -2 0 -4 277 -4 616 l0 616 78 -65 c42 -35
136 -112 207 -172z m-205 -2154 c30 -25 60 -50 66 -56 6 -5 121 -101 257 -213
255 -212 286 -245 272 -300 -12 -49 -34 -72 -248 -249 -117 -96 -232 -192
-257 -213 -25 -21 -73 -61 -107 -90 l-63 -52 0 617 c0 490 3 615 13 609 6 -4
37 -28 67 -53z"/>
</g>
</svg>
